<?xml version="1.0" encoding="utf-8"?>
<!-- Generator: Adobe Illustrator 27.9.0, SVG Export Plug-In . SVG Version: 6.00 Build 0)  -->
<svg version="1.1" id="Layer_1" xmlns="http://www.w3.org/2000/svg" xmlns:xlink="http://www.w3.org/1999/xlink" x="0px" y="0px"
	 viewBox="0 0 150 150" style="enable-background:new 0 0 150 150;" xml:space="preserve">
<style type="text/css">
	.st0{fill:#292D32;}
</style>
<g>
	<path class="st0" d="M130.8,70.4H19.2c-1.6,0-3.1-0.7-4-2c-1-1.2-1.4-2.9-1-4.4L22,26.3c2.6-12.2,7.8-23.4,28.5-23.4h49
		c20.7,0,25.9,11.3,28.5,23.4l7.9,37.7c0.3,1.5-0.1,3.1-1,4.4C133.9,69.7,132.4,70.4,130.8,70.4z M25.6,59.9h98.7l-6.6-31.4
		c-2-9.1-4.3-15.1-18.3-15.1h-49c-14,0-16.3,6-18.3,15.1L25.6,59.9z"/>
	<path class="st0" d="M130.5,147.1h-13.1c-11.3,0-13.5-6.5-14.9-10.7l-1.4-4.2c-1.8-5.3-2-6-8.3-6H57.1c-6.3,0-6.7,1.2-8.3,6
		l-1.4,4.2c-1.5,4.3-3.6,10.7-14.9,10.7H19.5c-5.5,0-10.8-2.3-14.5-6.3c-3.6-4-5.4-9.3-4.9-14.6L4,83.7c1-11.5,4.1-23.8,26.5-23.8
		h89c22.4,0,25.4,12.3,26.5,23.8l3.9,42.5c0.5,5.3-1.3,10.6-4.9,14.6C141.3,144.8,136,147.1,130.5,147.1z M57.1,115.7h35.7
		c12.7,0,15.7,5.7,18.2,13l1.5,4.3c1.2,3.6,1.2,3.6,5,3.6h13.1c2.6,0,5-1,6.8-2.9c1.7-1.8,2.4-4.1,2.2-6.6l-3.9-42.5
		c-0.9-9.4-2-14.3-16-14.3H30.5c-14.1,0-15.2,4.9-16,14.3l-3.9,42.5c-0.2,2.4,0.6,4.7,2.2,6.6c1.7,1.9,4.2,2.9,6.8,2.9h13.1
		c3.8,0,3.8-0.1,5-3.6l1.4-4.3C40.7,123.3,43.3,115.7,57.1,115.7z"/>
	<path class="st0" d="M19.2,49.4h-7c-2.9,0-5.2-2.4-5.2-5.2c0-2.9,2.4-5.2,5.2-5.2h7c2.9,0,5.2,2.4,5.2,5.2
		C24.4,47.1,22.1,49.4,19.2,49.4z"/>
	<path class="st0" d="M137.8,49.4h-7c-2.9,0-5.2-2.4-5.2-5.2c0-2.9,2.4-5.2,5.2-5.2h7c2.9,0,5.2,2.4,5.2,5.2
		C143,47.1,140.6,49.4,137.8,49.4z"/>
	<path class="st0" d="M75,28.5c-2.9,0-5.2-2.4-5.2-5.2v-14c0-2.9,2.4-5.2,5.2-5.2s5.2,2.4,5.2,5.2v14C80.2,26.1,77.9,28.5,75,28.5z"
		/>
	<path class="st0" d="M85.5,28.5H64.5c-2.9,0-5.2-2.4-5.2-5.2s2.4-5.2,5.2-5.2h20.9c2.9,0,5.2,2.4,5.2,5.2S88.3,28.5,85.5,28.5z"/>
	<path class="st0" d="M54.1,98.3H33.1c-2.9,0-5.2-2.4-5.2-5.2c0-2.9,2.4-5.2,5.2-5.2h20.9c2.9,0,5.2,2.4,5.2,5.2
		C59.3,95.9,56.9,98.3,54.1,98.3z"/>
	<path class="st0" d="M116.9,98.3H95.9c-2.9,0-5.2-2.4-5.2-5.2c0-2.9,2.4-5.2,5.2-5.2h20.9c2.9,0,5.2,2.4,5.2,5.2
		C122.1,95.9,119.7,98.3,116.9,98.3z"/>
</g>
</svg>
