<?xml version="1.0" encoding="utf-8"?>
<!-- Generator: Adobe Illustrator 27.9.0, SVG Export Plug-In . SVG Version: 6.00 Build 0)  -->
<svg version="1.1" id="Layer_1" xmlns="http://www.w3.org/2000/svg" xmlns:xlink="http://www.w3.org/1999/xlink" x="0px" y="0px"
	 viewBox="0 0 150 150" style="enable-background:new 0 0 150 150;" xml:space="preserve">
<style type="text/css">
	.st0{fill:#FFFFFF;}
</style>
<g>
	<path class="st0" d="M144.2,138.5H67.3c-3.2,0-5.8-2.6-5.8-5.8c0-3.2,2.6-5.8,5.8-5.8h76.9c3.2,0,5.8,2.6,5.8,5.8
		C150,135.8,147.4,138.5,144.2,138.5z"/>
	<path class="st0" d="M144.2,84.6H67.3c-3.2,0-5.8-2.6-5.8-5.8s2.6-5.8,5.8-5.8h76.9c3.2,0,5.8,2.6,5.8,5.8S147.4,84.6,144.2,84.6z"
		/>
	<path class="st0" d="M144.2,30.8H67.3c-3.2,0-5.8-2.6-5.8-5.8s2.6-5.8,5.8-5.8h76.9c3.2,0,5.8,2.6,5.8,5.8S147.4,30.8,144.2,30.8z"
		/>
	<path class="st0" d="M13.4,38.5c-1.5,0-2.9-0.5-4.1-1.7l-7.7-7.7c-2.2-2.2-2.2-5.9,0-8.2s5.9-2.2,8.2,0l3.6,3.6l19-19
		c2.2-2.2,5.9-2.2,8.2,0c2.2,2.2,2.2,5.9,0,8.2L17.5,36.8C16.4,37.9,14.9,38.5,13.4,38.5z"/>
	<path class="st0" d="M13.4,92.3c-1.5,0-2.9-0.5-4.1-1.7l-7.7-7.7c-2.2-2.2-2.2-5.9,0-8.2c2.2-2.2,5.9-2.2,8.2,0l3.6,3.6l19-19
		c2.2-2.2,5.9-2.2,8.2,0c2.2,2.2,2.2,5.9,0,8.2L17.5,90.6C16.4,91.8,14.9,92.3,13.4,92.3z"/>
	<path class="st0" d="M13.4,146.2c-1.5,0-2.9-0.5-4.1-1.7l-7.7-7.7c-2.2-2.2-2.2-5.9,0-8.2c2.2-2.2,5.9-2.2,8.2,0l3.6,3.6l19-19
		c2.2-2.2,5.9-2.2,8.2,0c2.2,2.2,2.2,5.9,0,8.2l-23.1,23.1C16.4,145.6,14.9,146.2,13.4,146.2z"/>
</g>
</svg>
