<?xml version="1.0" encoding="utf-8"?>
<!-- Generator: Adobe Illustrator 27.9.0, SVG Export Plug-In . SVG Version: 6.00 Build 0)  -->
<svg version="1.1" id="Layer_1" xmlns="http://www.w3.org/2000/svg" xmlns:xlink="http://www.w3.org/1999/xlink" x="0px" y="0px"
	 viewBox="0 0 150 150" style="enable-background:new 0 0 150 150;" xml:space="preserve">
<style type="text/css">
	.st0{fill:#292D32;}
</style>
<g>
	<path class="st0" d="M91.5,135.3H58.5c-30.2,0-43.8-13.5-43.8-43.8V58.5c0-30.2,13.5-43.8,43.8-43.8h33.1
		c30.2,0,43.8,13.5,43.8,43.8v33.1C135.3,121.8,121.8,135.3,91.5,135.3z M58.5,25C33.8,25,25,33.8,25,58.5v33.1
		c0,24.7,8.8,33.4,33.4,33.4h33.1c24.7,0,33.4-8.8,33.4-33.4V58.5c0-24.7-8.8-33.4-33.4-33.4H58.5z"/>
	<path class="st0" d="M85.3,114.6H64.7c-20,0-29.3-9.3-29.3-29.3V64.7c0-20,9.3-29.3,29.3-29.3h20.7c20,0,29.3,9.3,29.3,29.3v20.7
		C114.6,105.3,105.3,114.6,85.3,114.6z M64.7,45.7c-14.3,0-18.9,4.6-18.9,18.9v20.7c0,14.3,4.6,18.9,18.9,18.9h20.7
		c14.3,0,18.9-4.6,18.9-18.9V64.7c0-14.3-4.6-18.9-18.9-18.9H64.7z"/>
	<path class="st0" d="M47.5,25c-2.9,0-5.2-2.3-5.2-5.2V6.1c0-2.8,2.3-5.2,5.2-5.2c2.8,0,5.2,2.3,5.2,5.2v13.8
		C52.7,22.7,50.3,25,47.5,25z"/>
	<path class="st0" d="M75,25c-2.8,0-5.2-2.3-5.2-5.2V6.1c0-2.8,2.3-5.2,5.2-5.2s5.2,2.3,5.2,5.2v13.8C80.2,22.7,77.8,25,75,25z"/>
	<path class="st0" d="M102.6,25c-2.8,0-5.2-2.3-5.2-5.2V6.1c0-2.8,2.3-5.2,5.2-5.2c2.8,0,5.2,2.3,5.2,5.2v13.8
		C107.7,22.7,105.4,25,102.6,25z"/>
	<path class="st0" d="M143.9,52.6h-13.8c-2.8,0-5.2-2.3-5.2-5.2s2.3-5.2,5.2-5.2h13.8c2.8,0,5.2,2.3,5.2,5.2S146.8,52.6,143.9,52.6z
		"/>
	<path class="st0" d="M143.9,80.2h-13.8c-2.8,0-5.2-2.3-5.2-5.2s2.3-5.2,5.2-5.2h13.8c2.8,0,5.2,2.3,5.2,5.2S146.8,80.2,143.9,80.2z
		"/>
	<path class="st0" d="M143.9,107.7h-13.8c-2.8,0-5.2-2.3-5.2-5.2c0-2.8,2.3-5.2,5.2-5.2h13.8c2.8,0,5.2,2.3,5.2,5.2
		C149.1,105.4,146.8,107.7,143.9,107.7z"/>
	<path class="st0" d="M102.6,149.1c-2.8,0-5.2-2.3-5.2-5.2v-13.8c0-2.8,2.3-5.2,5.2-5.2c2.8,0,5.2,2.3,5.2,5.2v13.8
		C107.7,146.7,105.4,149.1,102.6,149.1z"/>
	<path class="st0" d="M75.1,149.1c-2.8,0-5.2-2.3-5.2-5.2v-13.8c0-2.8,2.3-5.2,5.2-5.2c2.8,0,5.2,2.3,5.2,5.2v13.8
		C80.2,146.7,77.9,149.1,75.1,149.1z"/>
	<path class="st0" d="M47.5,149.1c-2.8,0-5.2-2.3-5.2-5.2v-13.8c0-2.8,2.3-5.2,5.2-5.2c2.8,0,5.2,2.3,5.2,5.2v13.8
		C52.7,146.7,50.3,149.1,47.5,149.1z"/>
	<path class="st0" d="M19.9,52.6H6.1c-2.8,0-5.2-2.3-5.2-5.2c0-2.9,2.3-5.2,5.2-5.2h13.8c2.8,0,5.2,2.3,5.2,5.2S22.8,52.6,19.9,52.6
		z"/>
	<path class="st0" d="M19.9,80.2H6.1c-2.8,0-5.2-2.3-5.2-5.2s2.3-5.2,5.2-5.2h13.8c2.8,0,5.2,2.3,5.2,5.2S22.8,80.2,19.9,80.2z"/>
	<path class="st0" d="M19.9,107.7H6.1c-2.8,0-5.2-2.3-5.2-5.2c0-2.8,2.3-5.2,5.2-5.2h13.8c2.8,0,5.2,2.3,5.2,5.2
		C25,105.4,22.8,107.7,19.9,107.7z"/>
</g>
</svg>
