<?xml version="1.0" encoding="utf-8"?>
<!-- Generator: Adobe Illustrator 27.9.0, SVG Export Plug-In . SVG Version: 6.00 Build 0)  -->
<svg version="1.1" id="Layer_1" xmlns="http://www.w3.org/2000/svg" xmlns:xlink="http://www.w3.org/1999/xlink" x="0px" y="0px"
	 viewBox="0 0 150 150" style="enable-background:new 0 0 150 150;" xml:space="preserve">
<style type="text/css">
	.st0{fill:#FFFFFF;}
</style>
<g>
	<path class="st0" d="M75.1,150c-7.6,0-15.2-2.2-21.2-6.7l-30.1-22.5c-8-6-14.2-18.4-14.2-28.3V40.4c0-10.8,7.9-22.3,18.1-26.1
		l35-13.1c6.9-2.6,17.9-2.6,24.8,0l35,13.1c10.2,3.8,18.1,15.3,18.1,26.1v52.1c0,10-6.2,22.4-14.2,28.3l-30.1,22.5
		C90.3,147.7,82.7,150,75.1,150z M66.3,11.1l-35,13.1c-6,2.2-11.2,9.8-11.2,16.3v52.1c0,6.7,4.7,16,10,19.9l30.1,22.5
		c8.1,6,21.7,6,29.8,0l30.1-22.5c5.3-4,10-13.2,10-19.9V40.4c0-6.4-5.3-13.9-11.2-16.3L83.9,11C79.1,9.3,71,9.3,66.3,11.1z"/>
	<path class="st0" d="M65.7,90.2c-1.3,0-2.7-0.5-3.7-1.5L50.7,77.4c-2-2-2-5.4,0-7.4c2-2,5.4-2,7.4,0l7.6,7.6l26.4-26.4
		c2-2,5.4-2,7.4,0s2,5.4,0,7.4L69.4,88.6C68.3,89.7,67,90.2,65.7,90.2z"/>
</g>
</svg>
