<?xml version="1.0" encoding="utf-8"?>
<!-- Generator: Adobe Illustrator 27.9.0, SVG Export Plug-In . SVG Version: 6.00 Build 0)  -->
<svg version="1.1" id="Layer_1" xmlns="http://www.w3.org/2000/svg" xmlns:xlink="http://www.w3.org/1999/xlink" x="0px" y="0px"
	 viewBox="0 0 150 150" style="enable-background:new 0 0 150 150;" xml:space="preserve">
<style type="text/css">
	.st0{fill:#292D32;}
</style>
<g>
	<path class="st0" d="M95.9,150H54.1c-14.4,0-26.2-11.7-26.2-26.2v-35c0-1.4,0.6-2.7,1.5-3.7c1-1,2.3-1.5,3.7-1.5l27.1,0.1
		c5.9,0,11.7,1.4,17,4c3.9,2,8.1,2.9,12.5,2.9h27.1c2.9,0,5.2,2.4,5.2,5.2v27.9C122.1,138.3,110.4,150,95.9,150z M38.4,94v29.8
		c0,8.7,7,15.7,15.7,15.7h41.9c8.7,0,15.7-7,15.7-15.7v-22.7H89.8c-6,0-11.8-1.3-17.2-4c-3.9-2-8.1-2.9-12.3-2.9L38.4,94z"/>
	<path class="st0" d="M116.9,101.2H89.8c-6,0-11.8-1.3-17.2-4c-3.9-2-8.1-2.9-12.3-2.9L33.1,94c-2.9,0-5.2-2.4-5.2-5.2v-22
		c0-4.6,2.4-10.3,5.7-13.6l14.8-14.8c0.3-0.3,0.5-0.8,0.5-1.2V26.2c0-2.9,2.4-5.2,5.2-5.2h41.9c2.9,0,5.2,2.4,5.2,5.2v11.1
		c0,0.4,0.2,0.9,0.5,1.2l14.8,14.8c3.3,3.3,5.7,9,5.7,13.6v29.1C122.1,98.8,119.7,101.2,116.9,101.2z M38.4,83.6l21.9,0.1
		c5.9,0,11.7,1.4,17,4c3.9,2,8.1,2.9,12.5,2.9h21.8V66.8c0-1.8-1.3-4.9-2.6-6.2L94.3,45.8c-2.2-2.2-3.6-5.4-3.6-8.6v-5.9H59.3v5.9
		c0,3.2-1.3,6.3-3.6,8.6L41,60.6c-1.3,1.3-2.6,4.4-2.6,6.2V83.6z"/>
	<path class="st0" d="M116.9,108.1c-2.9,0-5.2-2.4-5.2-5.2v-7c0-2.9,2.4-5.2,5.2-5.2s5.2,2.4,5.2,5.2v7
		C122.1,105.8,119.7,108.1,116.9,108.1z"/>
	<path class="st0" d="M33.1,101c-2.9,0-5.2-2.4-5.2-5.2v-7c0-2.9,2.4-5.2,5.2-5.2s5.2,2.4,5.2,5.2v7C38.4,98.7,36,101,33.1,101z"/>
	<path class="st0" d="M92.4,31.4H57.6c-8.7,0-15.7-7-15.7-15.7S48.9,0,57.6,0h34.9c8.7,0,15.7,7,15.7,15.7S101.1,31.4,92.4,31.4z
		 M57.6,10.5c-2.9,0-5.2,2.4-5.2,5.2s2.4,5.2,5.2,5.2h34.9c2.9,0,5.2-2.4,5.2-5.2s-2.4-5.2-5.2-5.2H57.6z"/>
</g>
</svg>
