<?xml version="1.0" encoding="utf-8"?>
<!-- Generator: Adobe Illustrator 23.0.0, SVG Export Plug-In . SVG Version: 6.00 Build 0)  -->
<svg version="1.1" id="Layer_1" xmlns="http://www.w3.org/2000/svg" xmlns:xlink="http://www.w3.org/1999/xlink" x="0px" y="0px"
	 viewBox="0 0 64 64" style="enable-background:new 0 0 64 64;" xml:space="preserve">
<style type="text/css">
	.st0{fill:#FFFFFF;}
</style>
<g>
	<path class="st0" d="M48.21,13.55c0-1.48,0.37-2.88,0.98-4.22c0.15-0.33,0.18-0.5-0.2-0.71C47,7.51,44.91,6.66,42.75,5.98
		c-0.36-0.11-0.5-0.03-0.63,0.32c-0.65,1.74-1.59,3.29-3.11,4.43c-0.66,0.49-1.38,0.85-2.19,1.01c-0.53,0.11-1.05-0.18-1.19-0.66
		c-0.16-0.54,0.07-1.13,0.61-1.27c1.95-0.5,2.99-1.93,3.78-3.62c0.24-0.51,0.42-1.04,0.6-1.57c0.29-0.88,0.68-1.13,1.58-0.93
		c2.93,0.64,5.67,1.75,8.24,3.27c1.65,0.97,1.63,0.97,0.86,2.7c-0.67,1.51-1.18,3.07-0.95,4.77c0.25,1.88,1.48,3.02,3.38,3.12
		c1.7,0.09,3.23-0.45,4.7-1.24c0.92-0.5,1.35-0.38,1.89,0.52c1.64,2.72,2.92,5.59,3.6,8.71c0.21,0.95-0.02,1.35-0.94,1.62
		c-1.45,0.43-2.8,1.05-3.9,2.12c-1.68,1.64-1.7,3.66-0.05,5.33c1.1,1.11,2.47,1.73,3.95,2.16c0.99,0.29,1.17,0.58,0.95,1.58
		c-0.69,3.14-1.93,6.04-3.62,8.76c-0.5,0.8-0.97,0.92-1.82,0.46c-1.14-0.61-2.34-1.05-3.65-1.2c-2.85-0.32-4.71,1.45-4.52,4.31
		c0.09,1.44,0.56,2.76,1.25,4.01c0.5,0.9,0.38,1.29-0.49,1.85c-2.65,1.69-5.52,2.86-8.58,3.59c-1.2,0.28-1.54,0.08-1.9-1.13
		c-0.36-1.23-0.89-2.37-1.72-3.36c-0.63-0.75-1.39-1.3-2.34-1.58c-0.74-0.22-1.06-0.71-0.89-1.32c0.16-0.58,0.75-0.82,1.48-0.61
		c1.79,0.51,3,1.72,3.98,3.22c0.46,0.7,0.82,1.45,1.08,2.24c0.09,0.26,0.18,0.34,0.49,0.26c2.24-0.59,4.36-1.47,6.39-2.6
		c0.33-0.18,0.3-0.34,0.17-0.63c-0.85-1.76-1.28-3.61-0.93-5.57c0.59-3.22,3.44-5.11,6.83-4.6c1.12,0.17,2.2,0.45,3.21,0.96
		c0.4,0.2,0.55,0.1,0.75-0.26c1.07-1.94,1.91-3.96,2.56-6.07c0.13-0.43,0.09-0.6-0.36-0.75c-1.43-0.5-2.71-1.25-3.79-2.34
		c-2.34-2.37-2.38-5.62-0.09-8.04c1.09-1.16,2.43-1.94,3.93-2.44c0.37-0.13,0.46-0.27,0.35-0.67c-0.57-2.14-1.42-4.16-2.54-6.07
		c-0.24-0.42-0.41-0.52-0.89-0.29c-1.66,0.8-3.43,1.18-5.27,0.89C49.94,18.9,48.2,16.73,48.21,13.55z"/>
	<path class="st0" d="M49.28,31.97c0.03,6.58-5.05,12.42-11.6,13.35c-0.31,0.04-0.62,0.1-0.93,0.11c-0.64,0.03-1.08-0.29-1.14-0.81
		c-0.07-0.61,0.36-1.12,1.02-1.18c1.02-0.09,2.01-0.3,2.98-0.64c4.72-1.69,8.09-6.49,7.52-12.07c-0.5-4.88-4.52-9.15-9.52-9.95
		c-0.29-0.05-0.58-0.08-0.87-0.11c-0.77-0.07-1.09-0.41-1.04-1.1c0.05-0.68,0.38-0.97,1.14-0.91c4.48,0.4,7.94,2.52,10.38,6.27
		C48.6,27.06,49.27,29.47,49.28,31.97z"/>
	<path class="st0" d="M33.6,40.44c0-9.87,0-19.74,0-29.61c0-1.11-0.11-2.2-0.43-3.27c-1.19-4.02-4.62-6.89-8.8-7.35
		c-4.07-0.45-8.03,1.62-10.07,5.27c-0.14,0.25-0.28,0.4-0.59,0.47c-6.41,1.48-10.3,7.83-8.74,14.26c0.1,0.4,0.03,0.62-0.31,0.87
		c-1.78,1.31-3.05,3.03-3.89,5.08C0.41,27.05,0.29,28.01,0,28.93c0,1,0,2,0,3c0.03,0.03,0.08,0.05,0.09,0.08
		c0.48,3.39,2.14,6.06,4.93,8.03c0.21,0.15,0.23,0.27,0.15,0.51c-0.23,0.67-0.36,1.36-0.46,2.06C3.87,48.2,7.4,53.8,12.81,55.4
		c0.37,0.11,0.51,0.28,0.61,0.65c1.56,5.86,7.64,9.19,13.19,7.25c4.12-1.44,6.96-5.5,6.98-10.05C33.62,48.98,33.6,44.71,33.6,40.44z
		 M31.62,32.85c0,0.52-0.11,0.69-0.66,0.76c-2.75,0.37-5.44,0.3-7.99-0.93c-1.53-0.74-2.77-1.83-3.56-3.38
		c-0.3-0.58-0.81-0.77-1.34-0.52c-0.51,0.24-0.7,0.79-0.42,1.38c0.47,1.01,1.16,1.88,2,2.6c0.45,0.39,0.31,0.51-0.13,0.71
		c-1.13,0.52-2.28,0.93-3.55,0.78c-1.6-0.19-2.67-1.17-3.46-2.49c-0.26-0.42-0.59-0.64-1.08-0.57c-0.44,0.06-0.7,0.34-0.8,0.77
		c-0.08,0.36,0.09,0.64,0.28,0.93c1.99,2.97,4.95,3.95,8.39,2.75c0.8-0.28,1.58-0.63,2.32-1.05c0.21-0.12,0.38-0.17,0.63-0.05
		c2.82,1.37,5.8,1.52,8.84,1.08c0.43-0.06,0.52,0.02,0.51,0.44c-0.02,1.35-0.01,2.7-0.01,4.1c-1.57-0.41-3.11-0.51-4.64,0.01
		c-1.72,0.59-3.04,1.68-3.95,3.26c-0.19,0.33-0.22,0.67,0.02,1c0.24,0.33,0.58,0.46,0.98,0.41c0.29-0.03,0.49-0.18,0.63-0.44
		c1.4-2.65,4.24-3.09,6.69-2.26c0.36,0.12,0.27,0.37,0.27,0.6c0,2.75,0.01,5.5,0,8.25c-0.01,1.54,0.1,3.08-0.32,4.59
		c-1.08,3.86-4.44,6.42-8.21,6.26c-3.96-0.17-7.08-2.94-7.82-6.95c-0.36-1.93,0.74-3.96,2.47-4.6c0.35-0.13,0.6-0.11,0.9,0.14
		c1.75,1.42,3.79,1.91,6,1.81c0.1,0,0.21-0.02,0.31-0.02c0.68,0.01,1.13-0.35,1.17-0.93c0.03-0.54-0.46-1-1.12-1
		c-0.96,0-1.92-0.01-2.85-0.27c-2.71-0.75-4.07-2.71-4.62-5.34c-0.15-0.74-0.15-1.49-0.12-2.24c0.03-0.69-0.32-1.06-0.99-1.08
		c-0.61-0.02-1.01,0.35-1,1.01c0.01,1.98,0.36,3.88,1.29,5.66c0.1,0.18,0.36,0.37-0.07,0.57c-1.85,0.89-2.82,2.46-3.23,4.4
		c-0.09,0.41-0.21,0.44-0.56,0.31c-4.46-1.69-7.11-6.97-5.79-11.54c0.13-0.44,0.29-0.47,0.68-0.32c1.23,0.49,2.52,0.7,3.84,0.72
		c0.85,0.01,1.35-0.68,1.07-1.41c-0.2-0.52-0.64-0.58-1.13-0.59c-3.26-0.11-5.87-1.52-7.71-4.16c-2.16-3.09-2.4-6.48-0.73-9.84
		c1.64-3.3,4.42-5.09,8.12-5.37c0.21-0.02,0.42-0.01,0.62-0.04c0.61-0.09,0.94-0.49,0.9-1.07c-0.04-0.55-0.39-0.89-0.99-0.9
		c-1.43-0.02-2.81,0.23-4.15,0.75c-0.19,0.08-0.39,0.15-0.64,0.24c-0.4-1.46-0.45-2.92-0.11-4.36c0.95-4.01,3.45-6.53,7.46-7.53
		c0.25-0.06,0.48-0.08,0.73,0.01c1.58,0.56,3.04,1.33,4.3,2.45c0.85,0.76,1.5,1.66,1.83,2.77c0.11,0.37,0.06,0.55-0.33,0.74
		c-2.06,1.01-3.51,2.63-4.42,4.72c-0.29,0.67-0.07,1.22,0.56,1.49c0.52,0.22,0.97,0.02,1.25-0.58c0.42-0.94,0.97-1.79,1.7-2.52
		c1.66-1.68,3.65-2.21,5.94-1.72c0.2,0.04,0.41,0.11,0.61,0.12c0.54,0.03,0.99-0.3,1.06-0.76c0.08-0.52-0.21-1.01-0.73-1.15
		c-1.07-0.29-2.16-0.46-3.27-0.34c-0.22,0.02-0.4,0.07-0.47-0.23c-0.62-2.64-2.45-4.27-4.66-5.57c-0.55-0.32-1.13-0.61-1.73-0.86
		c-0.38-0.16-0.44-0.27-0.2-0.64c2.94-4.43,9.5-4.89,13.03-0.91c1.41,1.59,2.12,3.46,2.13,5.58c0.02,2.83,0,5.66,0.01,8.5
		c0,0.36-0.12,0.63-0.35,0.89c-1.54,1.8-3.55,2.68-5.84,3.05c-0.49,0.08-0.99,0.09-1.49,0.13c-0.62,0.05-1.06,0.46-1.04,1.02
		c0.01,0.56,0.45,0.98,1.08,0.98c2.67-0.02,5.13-0.74,7.28-2.36c0.08-0.06,0.16-0.12,0.25-0.19c0.18,0.17,0.09,0.36,0.09,0.53
		C31.6,26.31,31.59,29.58,31.62,32.85z"/>
</g>
</svg>
