<?xml version="1.0" encoding="utf-8"?>
<!-- Generator: Adobe Illustrator 27.9.0, SVG Export Plug-In . SVG Version: 6.00 Build 0)  -->
<svg version="1.1" id="Layer_1" xmlns="http://www.w3.org/2000/svg" xmlns:xlink="http://www.w3.org/1999/xlink" x="0px" y="0px"
	 viewBox="0 0 150 150" style="enable-background:new 0 0 150 150;" xml:space="preserve">
<style type="text/css">
	.st0{fill:#292D32;}
</style>
<g>
	<path class="st0" d="M82,94.2H5.2C2.4,94.2,0,91.8,0,89V33.1C0,14.9,14.9,0,33.1,0h62.8c2.9,0,5.2,2.4,5.2,5.2V75
		C101.2,85.6,92.6,94.2,82,94.2z M10.5,83.7H82c4.8,0,8.7-3.9,8.7-8.7V10.5H33.1c-12.5,0-22.7,10.2-22.7,22.7V83.7z"/>
	<path class="st0" d="M123.8,136h-7c-2.9,0-5.2-2.4-5.2-5.2c0-4.8-3.9-8.7-8.7-8.7c-4.8,0-8.7,3.9-8.7,8.7c0,2.9-2.4,5.2-5.2,5.2H61
		c-2.9,0-5.2-2.4-5.2-5.2c0-4.8-3.9-8.7-8.7-8.7s-8.7,3.9-8.7,8.7c0,2.9-2.4,5.2-5.2,5.2h-7C11.7,136,0,124.3,0,109.9V89
		c0-2.9,2.4-5.2,5.2-5.2H82c4.8,0,8.7-3.9,8.7-8.7V26.2c0-2.9,2.4-5.2,5.2-5.2h12.8c6.9,0,13.3,3.7,16.7,9.7l11.9,20.9
		c0.9,1.6,0.9,3.6,0,5.2c-0.9,1.6-2.7,2.6-4.5,2.6h-9c-1,0-1.7,0.8-1.7,1.7V82c0,1,0.8,1.7,1.7,1.7h20.9c2.9,0,5.2,2.4,5.2,5.2v20.9
		C150,124.3,138.3,136,123.8,136z M121.4,125.6h2.4c8.7,0,15.7-7,15.7-15.7V94.2h-15.7c-6.7,0-12.2-5.5-12.2-12.2V61
		c0-6.7,5.4-12.2,12.2-12.2l-7.5-13c-1.5-2.7-4.5-4.4-7.6-4.4h-7.6V75c0,10.6-8.6,19.2-19.2,19.2H10.5v15.7c0,8.7,7,15.7,15.7,15.7
		h2.4c2.3-8,9.7-14,18.5-14s16.2,5.9,18.5,14h18.9c2.3-8,9.7-14,18.5-14S119.1,117.6,121.4,125.6z"/>
	<path class="st0" d="M47.1,150c-10.6,0-19.2-8.6-19.2-19.2s8.6-19.2,19.2-19.2s19.2,8.6,19.2,19.2S57.7,150,47.1,150z M47.1,122.1
		c-4.8,0-8.7,3.9-8.7,8.7c0,4.8,3.9,8.7,8.7,8.7s8.7-3.9,8.7-8.7C55.8,126,51.9,122.1,47.1,122.1z"/>
	<path class="st0" d="M102.9,150c-10.6,0-19.2-8.6-19.2-19.2s8.6-19.2,19.2-19.2s19.2,8.6,19.2,19.2S113.5,150,102.9,150z
		 M102.9,122.1c-4.8,0-8.7,3.9-8.7,8.7c0,4.8,3.9,8.7,8.7,8.7c4.8,0,8.7-3.9,8.7-8.7C111.6,126,107.7,122.1,102.9,122.1z"/>
	<path class="st0" d="M144.8,94.2h-20.9c-6.7,0-12.2-5.5-12.2-12.2V61c0-6.7,5.5-12.2,12.2-12.2h9c1.9,0,3.6,1,4.5,2.7l11.9,20.9
		c0.4,0.8,0.7,1.7,0.7,2.6v14C150,91.8,147.6,94.2,144.8,94.2z M123.8,59.3c-1,0-1.7,0.8-1.7,1.7V82c0,1,0.8,1.7,1.7,1.7h15.7v-7.3
		l-9.8-17.1H123.8z"/>
</g>
</svg>
