<?xml version="1.0" encoding="utf-8"?>
<!-- Generator: Adobe Illustrator 27.9.0, SVG Export Plug-In . SVG Version: 6.00 Build 0)  -->
<svg version="1.1" id="Layer_1" xmlns="http://www.w3.org/2000/svg" xmlns:xlink="http://www.w3.org/1999/xlink" x="0px" y="0px"
	 viewBox="0 0 150 150" style="enable-background:new 0 0 150 150;" xml:space="preserve">
<style type="text/css">
	.st0{fill:#292D32;}
</style>
<path class="st0" d="M56.6,150c-1.4,0-2.5-0.3-3.3-0.6c-2.8-1-7.5-4.5-7.5-15.3v-45H29.4c-9.3,0-12.7-4.4-13.9-7
	c-1.2-2.7-2.2-8,3.9-15.1l52.8-60C79.3-1,85.1-0.5,87.9,0.6c2.8,1,7.5,4.5,7.5,15.3v45h16.3c9.3,0,12.7,4.4,13.9,7
	c1.2,2.7,2.2,8-3.9,15.1l-52.8,60C64,148.5,59.7,150,56.6,150z M84.1,10.4c-0.2,0.3-1.7,1-4,3.6L27.3,74c-2,2.2-2.2,3.6-2.2,3.9
	c0.1,0.1,1.4,0.8,4.3,0.8h21.6c2.9,0,5.2,2.4,5.2,5.2v50.2c0,3.5,0.6,5,0.9,5.4c0.2-0.3,1.7-1,4-3.6l52.8-60c2-2.2,2.2-3.6,2.2-3.9
	c-0.1-0.1-1.4-0.8-4.3-0.8H90.2c-2.9,0-5.2-2.4-5.2-5.2V15.9C85,12.4,84.3,10.9,84.1,10.4z"/>
</svg>
