<?xml version="1.0" encoding="utf-8"?>
<!-- Generator: Adobe Illustrator 27.9.0, SVG Export Plug-In . SVG Version: 6.00 Build 0)  -->
<svg version="1.1" id="Layer_1" xmlns="http://www.w3.org/2000/svg" xmlns:xlink="http://www.w3.org/1999/xlink" x="0px" y="0px"
	 viewBox="0 0 150 150" style="enable-background:new 0 0 150 150;" xml:space="preserve">
<style type="text/css">
	.st0{fill:#FFFFFF;}
</style>
<path class="st0" d="M75,105.8C58,105.8,44.2,92,44.2,75C44.2,58,58,44.2,75,44.2c17,0,30.8,13.8,30.8,30.8
	C105.8,92,92,105.8,75,105.8z M75,54.9c-11.1,0-20.1,9-20.1,20.1c0,11.1,9,20.1,20.1,20.1s20.1-9,20.1-20.1
	C95.2,63.9,86.1,54.9,75,54.9z"/>
<path class="st0" d="M75,139.2c-26.8,0-52-15.7-69.4-42.8c-7.5-11.7-7.5-30.9,0-42.7C23.1,26.5,48.3,10.8,75,10.8
	c26.7,0,51.9,15.7,69.3,42.8c7.5,11.7,7.5,30.9,0,42.7C127,123.5,101.7,139.2,75,139.2z M75,21.5c-23,0-45,13.8-60.3,37.9
	c-5.3,8.3-5.3,22.8,0,31.2C30.1,114.7,52,128.5,75,128.5c23,0,45-13.8,60.3-37.9c5.3-8.3,5.3-22.8,0-31.2C120,35.3,98,21.5,75,21.5z
	"/>
</svg>
