<?xml version="1.0" encoding="utf-8"?>
<!-- Generator: Adobe Illustrator 27.9.0, SVG Export Plug-In . SVG Version: 6.00 Build 0)  -->
<svg version="1.1" id="Layer_1" xmlns="http://www.w3.org/2000/svg" xmlns:xlink="http://www.w3.org/1999/xlink" x="0px" y="0px"
	 viewBox="0 0 150 150" style="enable-background:new 0 0 150 150;" xml:space="preserve">
<style type="text/css">
	.st0{fill:#292D32;}
</style>
<g>
	<path class="st0" d="M93.6,127h-37c-3,0-6.7-0.3-9.2-2.9c-2.4-2.5-2.4-5.6-2.3-7.7v-6C28.2,99.2,17,79.6,17,60.9
		c0-17.7,7.9-34.2,21.7-45.3S70.5,0.4,88.2,4.3C105,8,119.5,19.2,127,34.3c14.6,29.4,0.5,61.1-21.9,76.2v5c0.1,1.9,0.1,5.5-2.6,8.3
		C100.4,125.9,97.5,127,93.6,127z M55.1,116.9c0.3,0,0.8,0.1,1.4,0.1h37.1c0.7,0,1.1-0.1,1.4-0.1c0-0.2,0-0.5,0-0.7v-8.5
		c0-1.7,0.9-3.4,2.4-4.3c19.9-12,33.1-39.5,20.5-64.7C111.7,26.2,99.8,17,85.9,14c-14.6-3.2-29.6,0.2-41,9.4S26.9,46.3,26.9,60.9
		c0,18.7,12.9,34.8,25.7,42.5c1.5,0.9,2.4,2.6,2.4,4.3L55.1,116.9C55.1,116.8,55.1,116.8,55.1,116.9z"/>
	<path class="st0" d="M98.5,147.2c-0.5,0-0.9-0.1-1.4-0.2c-14.5-4.2-29.8-4.2-44.3,0c-2.7,0.7-5.4-0.8-6.2-3.5
		c-0.8-2.7,0.8-5.4,3.5-6.2c16.3-4.6,33.5-4.6,49.8,0c2.7,0.7,4.2,3.6,3.5,6.2C102.7,145.8,100.7,147.2,98.5,147.2z"/>
</g>
</svg>
