<?xml version="1.0" encoding="utf-8"?>
<!-- Generator: Adobe Illustrator 27.9.0, SVG Export Plug-In . SVG Version: 6.00 Build 0)  -->
<svg version="1.1" id="Layer_1" xmlns="http://www.w3.org/2000/svg" xmlns:xlink="http://www.w3.org/1999/xlink" x="0px" y="0px"
	 viewBox="0 0 150 150" style="enable-background:new 0 0 150 150;" xml:space="preserve">
<style type="text/css">
	.st0{fill:#292D32;}
</style>
<g>
	<path class="st0" d="M75.1,59.3c-2.9,0-5.2-2.4-5.2-5.2V17.9l-5,5c-2,2-5.4,2-7.4,0s-2-5.4,0-7.4L71.4,1.6c1.5-1.5,3.8-2,5.7-1.1
		c2,0.8,3.2,2.7,3.2,4.8v48.8C80.3,56.9,77.9,59.3,75.1,59.3z"/>
	<path class="st0" d="M89,24.5c-1.3,0-2.6-0.5-3.7-1.5L71.4,9c-2-2-2-5.4,0-7.4s5.4-2,7.4,0l13.9,13.9c2,2,2,5.4,0,7.4
		C91.6,24,90.3,24.5,89,24.5z"/>
	<path class="st0" d="M87.3,115.1H62.7c-7.3,0-13.9-4-17.1-10.6l-8.2-16.3c-0.3-0.6-0.9-1-1.5-1H5.2C2.4,87.2,0,84.8,0,82
		c0-2.9,2.4-5.2,5.2-5.2H36c4.7,0,8.9,2.6,10.9,6.8l8.2,16.3c1.5,3,4.5,4.8,7.8,4.8h24.6c3.3,0,6.3-1.8,7.8-4.8l8.2-16.3
		c2.1-4.2,6.3-6.8,10.9-6.8h30.4c2.9,0,5.2,2.4,5.2,5.2c0,2.9-2.4,5.2-5.2,5.2h-30.4c-0.7,0-1.3,0.3-1.5,1l-8.2,16.3
		C101.2,111,94.6,115.1,87.3,115.1z"/>
	<path class="st0" d="M96,149.9H54.1c-37.9,0-54-16.2-54-54V75c0-32.7,12.1-49.1,39.3-53.1c2.9-0.4,5.5,1.5,5.9,4.4
		c0.4,2.9-1.5,5.5-4.4,5.9C19.1,35.5,10.6,47.5,10.6,75v20.9c0,32.1,11.4,43.6,43.6,43.6H96c32.1,0,43.6-11.4,43.6-43.6V75
		c0-27.5-8.5-39.5-30.4-42.7c-2.9-0.4-4.8-3.1-4.4-5.9c0.4-2.9,3.1-4.8,5.9-4.4c27.2,4,39.3,20.4,39.3,53.1v20.9
		C150,133.8,133.8,149.9,96,149.9z"/>
</g>
</svg>
