<?xml version="1.0" encoding="utf-8"?>
<!-- Generator: Adobe Illustrator 27.9.0, SVG Export Plug-In . SVG Version: 6.00 Build 0)  -->
<svg version="1.1" id="Layer_1" xmlns="http://www.w3.org/2000/svg" xmlns:xlink="http://www.w3.org/1999/xlink" x="0px" y="0px"
	 viewBox="0 0 150 150" style="enable-background:new 0 0 150 150;" xml:space="preserve">
<style type="text/css">
	.st0{fill:#FFFFFF;}
</style>
<path class="st0" d="M64.8,117.2c-1,0-1.9-0.3-2.8-0.9c-1.4-0.9-2.2-2.4-2.2-4.1c0-1-0.1-2.1-0.2-3.1c-0.6-4.7-2.7-8.8-6.3-12.4
	c-3.6-3.6-8-5.8-12.8-6.4c-0.8-0.1-1.9-0.1-3-0.1c-1.7,0.1-3.3-0.6-4.3-2c-1-1.3-1.3-3.1-0.7-4.7c1-2.7,2.4-5.2,4.2-7.1L47,63.6
	C64.5,41.7,100,15.3,126,4.9c5.6-2.1,11.4-0.9,15.4,3.1c4.2,4.2,5.4,10.1,3.2,15.5c-10.5,26.1-36.7,61.5-58.6,79.1l-13,10.5
	c-2.4,1.8-4.4,2.9-6.4,3.7C66.1,117,65.4,117.2,64.8,117.2z M45.7,81.2c5.6,1.5,10.5,4.4,14.7,8.5c4.2,4.1,6.9,8.9,8.3,14.2l11.2-9
	c20.8-16.6,45.7-50.3,55.6-75c1-2.4-0.4-4.2-1.1-4.8c-0.5-0.5-2.2-1.9-4.8-0.9c-24.6,9.9-58.3,34.9-75,55.6L45.7,81.2z"/>
<path class="st0" d="M22.8,146.1c-5,0-9.7-2-13.3-5.6c-4.1-4.1-6.1-9.8-5.4-15.6l1.8-16.3c1.7-16.1,15-28.1,31.4-28.4
	c1.3-0.1,2.9,0,4.4,0.1c7.2,0.9,13.6,4.2,18.8,9.3c5.1,5.1,8.1,11.2,9.1,18c0.2,1.5,0.3,3,0.3,4.4c0,8.7-3.4,16.9-9.5,23
	c-5.1,5-11.6,8.1-19.1,9.1L25,146C24.3,146.1,23.5,146.1,22.8,146.1z M38.5,90.2c-0.3,0-0.6,0-0.9,0c-10,0.2-20.6,7-21.9,19.6
	l-1.8,16.3c-0.3,2.8,0.7,5.5,2.6,7.5c1.9,1.9,4.6,2.9,7.3,2.6l16.3-1.8c5.1-0.7,9.7-2.8,13.1-6.2c4.2-4.2,6.6-9.9,6.6-16
	c0-1-0.1-2.1-0.2-3.1c-0.6-4.7-2.7-8.8-6.3-12.4s-8-5.8-12.8-6.4C40.1,90.2,39.3,90.2,38.5,90.2z"/>
<path class="st0" d="M90,96.3c-2.7,0-5-2.2-5-5C85.1,76.8,73.2,65,58.7,65c-2.7,0-5-2.2-5-5c0-2.7,2.2-5,4.9-5
	c20,0,36.3,16.3,36.3,36.3C95,94.1,92.7,96.3,90,96.3z"/>
<path class="st0" d="M99.6,146c-6.2,0-12.3-2.9-18.2-8.8c-1.9-1.9-1.9-5.1,0-7c1.9-1.9,5.1-1.9,7,0c7.8,7.8,14.5,7.8,22.3,0
	l19.6-19.6c7.9-7.9,7.9-14.6,0-22.4l-4.9-4.8c-1.9-1.9-2-5.1-0.1-7c1.9-2,5.1-2,7-0.1l4.9,4.8c11.8,11.8,11.8,24.7,0,36.5
	l-19.6,19.6C111.9,143,105.7,146,99.6,146z"/>
<path class="st0" d="M16.4,70.1c-1.3,0-2.6-0.5-3.5-1.5C1.3,57,1.3,44,12.9,32.3l19.6-19.6c11.6-11.6,24.7-11.6,36.4,0l4.9,4.9
	c1.9,1.9,1.9,5.1,0,7c-1.9,1.9-5.1,1.9-7,0l-5-4.9c-7.8-7.8-14.6-7.8-22.3,0L19.9,39.3c-7.8,7.9-7.8,14.6,0,22.4
	c1.9,1.9,1.9,5.1,0,7C18.9,69.7,17.7,70.1,16.4,70.1z"/>
<path class="st0" d="M45.8,50.5c-1.3,0-2.5-0.5-3.5-1.5c-1.9-1.9-1.9-5.1,0-7l24.5-24.5c1.9-1.9,5.1-1.9,7,0s1.9,5.1,0,7L49.3,49.1
	C48.3,50.1,47,50.5,45.8,50.5z"/>
<path class="st0" d="M109.3,104.3c-1.3,0-2.5-0.5-3.5-1.5c-1.9-1.9-1.9-5.1,0-7l19.6-19.6c1.9-1.9,5.1-1.9,7,0c1.9,1.9,1.9,5.1,0,7
	l-19.6,19.6C111.9,103.9,110.7,104.3,109.3,104.3z"/>
</svg>
