<?xml version="1.0" encoding="utf-8"?>
<!-- Generator: Adobe Illustrator 27.9.0, SVG Export Plug-In . SVG Version: 6.00 Build 0)  -->
<svg version="1.1" id="Layer_1" xmlns="http://www.w3.org/2000/svg" xmlns:xlink="http://www.w3.org/1999/xlink" x="0px" y="0px"
	 viewBox="0 0 150 150" style="enable-background:new 0 0 150 150;" xml:space="preserve">
<style type="text/css">
	.st0{fill:#292D32;}
</style>
<path class="st0" d="M75,150c-34,0-61.7-27.7-61.7-61.7C13,48.3,51.1,15,67.5,2.5c4.4-3.3,10.5-3.3,14.9,0
	c16.4,12.7,54.5,46.4,54.3,85.8C136.7,122.3,109,150,75,150z M75,10.5c-0.3,0-0.8,0.1-1.1,0.4c-11.8,9-50.3,41.2-50.1,77.4
	c0,28.3,23,51.3,51.3,51.3c28.3,0,51.3-23,51.3-51.2C126.6,52.6,88,20,76.1,10.9C75.7,10.6,75.3,10.5,75,10.5z"/>
</svg>
