<?xml version="1.0" encoding="utf-8"?>
<!-- Generator: Adobe Illustrator 27.9.0, SVG Export Plug-In . SVG Version: 6.00 Build 0)  -->
<svg version="1.1" id="Layer_1" xmlns="http://www.w3.org/2000/svg" xmlns:xlink="http://www.w3.org/1999/xlink" x="0px" y="0px"
	 viewBox="0 0 150 150" style="enable-background:new 0 0 150 150;" xml:space="preserve">
<style type="text/css">
	.st0{fill:#292D32;}
</style>
<path class="st0" d="M95,71.7c-1.7,0-3.3-0.8-4.3-2.3L68.3,36c-0.8-1.2-1-2.6-0.8-3.9c0.3-1.3,1-2.6,2.2-3.3l39.5-26.4
	c3.1-2.1,6.8-2.8,10.4-2.1c3.6,0.7,6.8,2.8,8.9,5.9L141.2,25c4.3,6.3,2.6,15-3.8,19.2L98,70.7C97,71.4,96,71.7,95,71.7z M80,34.6
	l16.5,24.6l35.1-23.5c1.6-1,2-3.2,0.9-4.7L119.7,12c-0.5-0.8-1.3-1.3-2.2-1.5c-0.9-0.2-1.8,0-2.6,0.5L80,34.6z"/>
<path class="st0" d="M59.5,90.6c-1.7,0-3.3-0.8-4.3-2.3L37.3,61.7c-1.6-2.4-1-5.6,1.5-7.3l33.3-22.3c1.2-0.8,2.6-1,3.9-0.8
	c1.4,0.3,2.6,1,3.3,2.2l17.9,26.6c1.6,2.4,1,5.6-1.5,7.3L62.4,89.8C61.5,90.4,60.4,90.6,59.5,90.6z M48.9,60.2l12,17.9l24.6-16.5
	l-12-18L48.9,60.2z"/>
<path class="st0" d="M27,108.6c-3.9,0-7.8-1.9-10.2-5.4L8.9,91.5c-1.8-2.7-2.4-5.9-1.8-9.1c0.6-3.2,2.4-5.9,5.2-7.7l27.5-18.4
	c2.4-1.6,5.6-1,7.3,1.5L62.7,81c1.6,2.4,1,5.6-1.5,7.3l-27.5,18.4C31.6,107.9,29.3,108.6,27,108.6z M41.3,67.7L18.1,83.2
	c-0.8,0.6-1,1.6-0.5,2.4l7.9,11.7c0.6,0.8,1.6,1,2.4,0.5l23.2-15.5L41.3,67.7z"/>
<path class="st0" d="M42.9,150c-0.7,0-1.5-0.1-2.2-0.5c-2.7-1.2-3.8-4.3-2.6-6.9l31.3-68.3c1.2-2.7,4.3-3.8,6.9-2.6
	c2.7,1.2,3.8,4.3,2.6,6.9l-31.3,68.3C46.7,148.9,44.8,150,42.9,150z"/>
<path class="st0" d="M104.8,150c-2,0-3.9-1.1-4.7-3.1l-31-68.3c-1.2-2.7,0-5.7,2.6-6.9c2.6-1.2,5.7,0,6.9,2.6l31,68.3
	c1.2,2.7,0,5.7-2.6,6.9C106.3,149.9,105.6,150,104.8,150z"/>
</svg>
