<?xml version="1.0" encoding="utf-8"?>
<!-- Generator: Adobe Illustrator 27.9.0, SVG Export Plug-In . SVG Version: 6.00 Build 0)  -->
<svg version="1.1" id="Layer_1" xmlns="http://www.w3.org/2000/svg" xmlns:xlink="http://www.w3.org/1999/xlink" x="0px" y="0px"
	 viewBox="0 0 150 150" style="enable-background:new 0 0 150 150;" xml:space="preserve">
<style type="text/css">
	.st0{fill:#292D32;}
</style>
<g>
	<path class="st0" d="M95.9,150H54.1C16.2,150,0,133.8,0,95.9V54.1C0,16.2,16.2,0,54.1,0h41.9C133.8,0,150,16.2,150,54.1v41.9
		C150,133.8,133.8,150,95.9,150z M54.1,10.5c-32.2,0-43.6,11.4-43.6,43.6v41.9c0,32.2,11.4,43.6,43.6,43.6h41.9
		c32.2,0,43.6-11.4,43.6-43.6V54.1c0-32.2-11.4-43.6-43.6-43.6H54.1z"/>
	<path class="st0" d="M65.1,100c-1.4,0-2.7-0.6-3.7-1.5L41.6,78.7c-2-2-2-5.4,0-7.4c2-2,5.4-2,7.4,0l16,16l35.9-35.9
		c2-2,5.4-2,7.4,0c2,2,2,5.4,0,7.4L68.8,98.4C67.8,99.4,66.5,100,65.1,100z"/>
</g>
</svg>
