<?xml version="1.0" encoding="utf-8"?>
<!-- Generator: Adobe Illustrator 27.9.0, SVG Export Plug-In . SVG Version: 6.00 Build 0)  -->
<svg version="1.1" id="Layer_1" xmlns="http://www.w3.org/2000/svg" xmlns:xlink="http://www.w3.org/1999/xlink" x="0px" y="0px"
	 viewBox="0 0 150 150" style="enable-background:new 0 0 150 150;" xml:space="preserve">
<style type="text/css">
	.st0{fill:#292D32;}
</style>
<g>
	<path class="st0" d="M74.9,101.1c-14.4,0-26.1-11.7-26.1-26.1s11.7-26.1,26.1-26.1s26.1,11.7,26.1,26.1S89.4,101.1,74.9,101.1z
		 M74.9,59.3c-8.6,0-15.7,7-15.7,15.7s7,15.7,15.7,15.7s15.7-7,15.7-15.7S83.6,59.3,74.9,59.3z"/>
	<path class="st0" d="M97.3,146c-1.5,0-2.9-0.2-4.4-0.6c-4.3-1.2-7.9-3.9-10.2-7.7l-0.8-1.4c-4.1-7.1-9.8-7.1-13.9,0l-0.8,1.3
		c-2.3,3.9-5.9,6.7-10.2,7.8c-4.4,1.2-8.9,0.6-12.8-1.7l-12-6.9c-4.3-2.4-7.3-6.4-8.6-11.2c-1.3-4.8-0.6-9.8,1.8-14
		c2-3.6,2.6-6.8,1.4-8.8c-1.2-2-4.2-3.2-8.3-3.2C8.3,99.6,0,91.3,0,81.1V68.8c0-10.2,8.3-18.5,18.5-18.5c4.1,0,7.1-1.2,8.3-3.2
		c1.2-2,0.7-5.2-1.4-8.8c-2.4-4.3-3.1-9.3-1.8-14c1.3-4.8,4.3-8.8,8.6-11.2l12.1-6.9c7.9-4.7,18.3-2,23,6.1l0.8,1.4
		c4.1,7.1,9.8,7.1,13.9,0l0.8-1.3c4.7-8.1,15.1-10.8,23.1-6.1l12,6.9c4.3,2.4,7.3,6.4,8.6,11.2c1.3,4.8,0.6,9.8-1.8,14
		c-2,3.6-2.6,6.8-1.4,8.8s4.2,3.2,8.3,3.2c10.2,0,18.5,8.3,18.5,18.5v12.3c0,10.2-8.3,18.5-18.5,18.5c-4.1,0-7.1,1.2-8.3,3.2
		c-1.2,2-0.7,5.2,1.4,8.8c2.4,4.3,3.1,9.3,1.8,14c-1.3,4.8-4.3,8.8-8.6,11.2l-12.1,6.9C103.1,145.2,100.2,146,97.3,146z M74.9,120.2
		c6.2,0,12,3.9,16,10.8l0.8,1.3c0.8,1.5,2.2,2.5,3.9,2.9c1.7,0.4,3.3,0.2,4.7-0.6l12.1-7c1.8-1,3.2-2.8,3.8-4.9
		c0.6-2.1,0.3-4.3-0.8-6.1c-4-6.8-4.5-13.9-1.4-19.2c3.1-5.4,9.4-8.4,17.4-8.4c4.5,0,8-3.6,8-8V68.8c0-4.4-3.6-8-8-8
		c-7.9,0-14.3-3.1-17.4-8.4c-3.1-5.4-2.6-12.4,1.4-19.2c1-1.8,1.3-4,0.8-6.1c-0.6-2.1-1.9-3.8-3.7-4.9l-12.1-6.9
		c-3-1.8-7-0.8-8.8,2.3l-0.8,1.3c-4,6.9-9.8,10.8-16,10.8c-6.2,0-12-3.9-16-10.8l-0.8-1.4c-1.7-2.9-5.6-4-8.6-2.2l-12.1,7
		c-1.8,1-3.2,2.8-3.8,4.9c-0.6,2.1-0.3,4.3,0.8,6.1c4,6.8,4.5,13.9,1.4,19.2c-3.1,5.4-9.4,8.4-17.4,8.4c-4.5,0-8,3.6-8,8v12.3
		c0,4.4,3.6,8,8,8c7.9,0,14.3,3.1,17.4,8.4c3.1,5.4,2.6,12.4-1.4,19.2c-1,1.8-1.3,4-0.8,6.1c0.6,2.1,1.9,3.8,3.7,4.9l12.1,6.9
		c1.5,0.9,3.2,1.1,4.8,0.7c1.7-0.4,3.1-1.5,4-3L59,131C62.9,124.2,68.7,120.2,74.9,120.2z"/>
</g>
</svg>
