<?xml version="1.0" encoding="utf-8"?>
<!-- Generator: Adobe Illustrator 23.0.0, SVG Export Plug-In . SVG Version: 6.00 Build 0)  -->
<svg version="1.1" id="Layer_1" xmlns="http://www.w3.org/2000/svg" xmlns:xlink="http://www.w3.org/1999/xlink" x="0px" y="0px"
	 viewBox="0 0 24 24" style="enable-background:new 0 0 24 24;" xml:space="preserve">
<style type="text/css">
	.st0{fill:none;stroke:#ffffff;stroke-width:1.5;stroke-linecap:round;stroke-linejoin:round;}
</style>
<path class="st0" d="M8.4,12l2.4,2.4l4.8-4.8"/>
<path class="st0" d="M10.8,2.4c0.7-0.6,1.8-0.6,2.5,0l1.6,1.4c0.3,0.3,0.9,0.5,1.3,0.5h1.7c1.1,0,1.9,0.9,1.9,1.9v1.7
	c0,0.4,0.2,1,0.5,1.3l1.4,1.6c0.6,0.7,0.6,1.8,0,2.5l-1.4,1.6c-0.3,0.3-0.5,0.9-0.5,1.3v1.7c0,1.1-0.9,1.9-1.9,1.9h-1.7
	c-0.4,0-1,0.2-1.3,0.5l-1.6,1.4c-0.7,0.6-1.8,0.6-2.5,0l-1.6-1.4c-0.3-0.3-0.9-0.5-1.3-0.5H6.2c-1.1,0-1.9-0.9-1.9-1.9v-1.7
	c0-0.4-0.2-0.9-0.5-1.2l-1.3-1.6c-0.6-0.7-0.6-1.8,0-2.5l1.3-1.6c0.2-0.4,0.5-1,0.5-1.4V6.2c0-1.1,0.9-1.9,1.9-1.9h1.7
	c0.4,0,1-0.2,1.3-0.5L10.8,2.4z"/>
</svg>
