<?xml version="1.0" encoding="utf-8"?>
<!-- Generator: Adobe Illustrator 27.9.0, SVG Export Plug-In . SVG Version: 6.00 Build 0)  -->
<svg version="1.1" id="Layer_1" xmlns="http://www.w3.org/2000/svg" xmlns:xlink="http://www.w3.org/1999/xlink" x="0px" y="0px"
	 viewBox="0 0 150 150" style="enable-background:new 0 0 150 150;" xml:space="preserve">
<style type="text/css">
	.st0{fill:#292D32;}
</style>
<path class="st0" d="M123.8,108.2c-2.9,0-5.2-2.4-5.2-5.2V36.6c0-4.8-3.9-8.7-8.7-8.7H71.5c-2.9,0-5.2-2.4-5.2-5.2s2.4-5.2,5.2-5.2
	h38.4c10.6,0,19.2,8.6,19.2,19.2v66.3C129.1,105.8,126.7,108.2,123.8,108.2z"/>
<path class="st0" d="M89,45.4c-1.2,0-2.4-0.4-3.3-1.2L64.7,26.7c-1.2-1-1.9-2.4-1.9-4c0-1.6,0.7-3,1.9-4L85.6,1.2
	c2.2-1.9,5.5-1.5,7.4,0.7s1.5,5.5-0.7,7.4L76.2,22.7l16.1,13.4c2.2,1.9,2.5,5.2,0.7,7.4C92,44.7,90.4,45.4,89,45.4z"/>
<path class="st0" d="M123.8,150c-14.4,0-26.2-11.7-26.2-26.2s11.7-26.2,26.2-26.2s26.2,11.7,26.2,26.2S138.3,150,123.8,150z
	 M123.8,108.2c-8.7,0-15.7,7-15.7,15.7s7,15.7,15.7,15.7s15.7-7,15.7-15.7S132.5,108.2,123.8,108.2z"/>
<path class="st0" d="M78.5,132.6H40.1c-10.6,0-19.2-8.6-19.2-19.2V47.1c0-2.9,2.4-5.2,5.2-5.2s5.2,2.4,5.2,5.2v66.3
	c0,4.8,3.9,8.7,8.7,8.7h38.4c2.9,0,5.2,2.4,5.2,5.2S81.3,132.6,78.5,132.6z"/>
<path class="st0" d="M61.1,150c-1.5,0-3-0.6-4-1.9c-1.9-2.2-1.5-5.5,0.7-7.4l16.1-13.4l-16.1-13.4c-2.2-1.9-2.5-5.2-0.7-7.4
	c1.9-2.2,5.2-2.5,7.4-0.7l20.9,17.4c1.2,1,1.9,2.4,1.9,4c0,1.6-0.7,3-1.9,4l-20.9,17.4C63.4,149.6,62.2,150,61.1,150z"/>
<path class="st0" d="M26.2,52.3C11.7,52.3,0,40.6,0,26.2S11.7,0,26.2,0s26.2,11.7,26.2,26.2S40.6,52.3,26.2,52.3z M26.2,10.5
	c-8.7,0-15.7,7-15.7,15.7s7,15.7,15.7,15.7s15.7-7,15.7-15.7S34.8,10.5,26.2,10.5z"/>
</svg>
