<?xml version="1.0" encoding="utf-8"?>
<!-- Generator: Adobe Illustrator 23.0.0, SVG Export Plug-In . SVG Version: 6.00 Build 0)  -->
<svg version="1.1" id="Layer_1" xmlns="http://www.w3.org/2000/svg" xmlns:xlink="http://www.w3.org/1999/xlink" x="0px" y="0px"
	 viewBox="0 0 64 64" style="enable-background:new 0 0 64 64;" xml:space="preserve">
<style type="text/css">
	.st0{fill:#FFFFFF;}
</style>
<g>
	<path class="st0" d="M39.2,25.62c0,2.69,0.01,5.39-0.01,8.08c0,0.41,0.07,0.62,0.51,0.8c1.65,0.68,2.56,1.96,2.59,3.74
		c0.05,2.97,0.01,5.95,0.02,8.92c0,0.36-0.09,0.46-0.46,0.47c-1.62,0.02-1.62,0.03-1.62-1.56c0-2.59,0.01-5.17-0.01-7.76
		c-0.01-1.09-0.81-1.96-1.85-2.06c-1.03-0.1-1.97,0.55-2.22,1.57c-0.06,0.27-0.06,0.56-0.06,0.83c0,4.1,0,8.19,0,12.29
		c0,3.25,1.61,5.2,4.83,5.86c1.08,0.22,2.18,0.3,3.28,0.23c1.01-0.06,1.96,0.13,2.88,0.55c3.2,1.47,6.41,2.93,9.62,4.37
		c0.46,0.2,0.53,0.38,0.27,0.79c-0.26,0.41-0.28,1.12-0.68,1.24c-0.35,0.1-0.85-0.31-1.28-0.51c-2.85-1.3-5.71-2.59-8.56-3.91
		c-0.76-0.35-1.53-0.5-2.38-0.46c-2,0.09-3.97-0.13-5.79-1.02c-2.77-1.34-4.27-3.53-4.27-6.66c0-4.31,0-8.62,0-12.93
		c0-1.93,0.94-3.36,2.73-4.04c0.4-0.16,0.37-0.39,0.37-0.69c0-5.48-0.01-10.95,0-16.43c0.01-2.23,1.77-3.92,3.97-3.87
		c1.78,0.05,3.34,1.38,3.64,3.18c1.1,6.52,2.17,13.04,3.26,19.55c0.35,2.1,0.69,4.21,1.05,6.31c0.28,1.61,1.11,2.86,2.52,3.73
		c1.78,1.1,3.53,2.23,5.31,3.31c0.39,0.24,0.46,0.4,0.17,0.77c-0.3,0.39-0.48,1.06-0.84,1.16c-0.33,0.09-0.83-0.41-1.24-0.66
		c-1.28-0.79-2.52-1.66-3.84-2.38c-2.64-1.45-3.88-3.69-4.33-6.62c-0.98-6.4-2.1-12.78-3.17-19.17c-0.31-1.85-0.6-3.7-0.93-5.54
		c-0.18-1.02-0.96-1.63-1.9-1.54c-0.93,0.09-1.6,0.84-1.61,1.86C39.19,20.15,39.2,22.88,39.2,25.62z"/>
	<path class="st0" d="M30.92,3.64c0-1.06,0.02-2.11-0.01-3.17C30.9,0.1,31.01,0.01,31.37,0c1.62-0.02,1.62-0.03,1.62,1.56
		c0,1.72-0.01,3.45,0.01,5.17c0.01,0.42-0.11,0.53-0.53,0.53c-1.55-0.01-1.55,0.01-1.55-1.56C30.92,5.02,30.92,4.33,30.92,3.64z"/>
	<path class="st0" d="M41.11,3.29c-0.07,0.09-0.15,0.19-0.23,0.29c-1.27,1.65-2.55,3.29-3.81,4.96c-0.26,0.34-0.44,0.37-0.74,0.07
		c-0.36-0.36-1.07-0.54-1.08-0.99c-0.01-0.39,0.52-0.79,0.82-1.18c1.05-1.36,2.12-2.71,3.14-4.09c0.28-0.38,0.46-0.38,0.78-0.08
		c0.28,0.26,0.61,0.47,0.91,0.71C40.99,3.06,41.14,3.11,41.11,3.29z"/>
	<path class="st0" d="M24.27,1.99c0.17-0.01,0.22,0.13,0.29,0.23c1.33,1.71,2.65,3.44,3.99,5.14c0.2,0.26,0.16,0.38-0.09,0.55
		c-0.44,0.3-0.87,0.88-1.3,0.87c-0.43-0.01-0.69-0.73-1.01-1.14c-0.93-1.18-1.84-2.38-2.76-3.57C22.7,3.2,22.7,3.2,23.6,2.5
		C23.82,2.33,24.05,2.16,24.27,1.99z"/>
	<path class="st0" d="M29.88,39.99c0-1.55,0.01-3.1,0-4.66c-0.01-0.76-0.4-1.15-1.16-1.16c-0.41-0.01-0.82-0.04-1.23,0.01
		c-0.58,0.07-0.74-0.12-0.73-0.72c0.02-6.23,0.02-12.46,0.01-18.69c0-0.93-0.36-1.3-1.28-1.3c-1.94,0-3.88-0.01-5.82,0
		c-0.74,0-1.1,0.34-1.18,1.08c-0.16,1.48-0.33,2.95-0.49,4.43c-0.79,7.45-1.58,14.91-2.37,22.36c-0.04,0.35-0.16,0.58-0.46,0.79
		c-1.56,1.09-2.68,2.54-3.33,4.33c-0.13,0.35-0.33,0.57-0.65,0.75c-1.22,0.68-2.43,1.38-3.64,2.08c-0.97,0.55-0.97,0.55-0.43,1.48
		c0.5,0.86,0.5,0.86,1.37,0.36c0.9-0.51,1.8-1.02,2.73-1.55c0.16,3.82,1.87,6.6,5.17,8.46c-2.82,1.21-5.56,2.38-8.3,3.56
		c-0.45,0.19-1.13,0.31-1.27,0.64c-0.13,0.33,0.31,0.88,0.46,1.34c0.13,0.42,0.31,0.5,0.73,0.31c3.66-1.59,7.33-3.16,11-4.74
		c0.3-0.13,0.6-0.19,0.93-0.17c5.53,0.26,9.9-3.9,9.92-9.42C29.89,46.37,29.88,43.18,29.88,39.99z M19.82,21.35
		c0.22-1.79,0.42-3.59,0.59-5.38c0.03-0.32,0.1-0.44,0.44-0.44c1.14,0.02,2.28,0.02,3.42,0c0.33-0.01,0.44,0.07,0.43,0.42
		c-0.03,0.9-0.01,1.81-0.01,2.71c0,0.86-0.02,1.72,0.01,2.58c0.01,0.37-0.05,0.52-0.48,0.51c-1.33-0.03-2.67-0.02-4-0.01
		C19.95,21.75,19.77,21.75,19.82,21.35z M18.95,29.61c0.22-1.79,0.4-3.59,0.58-5.39c0.03-0.3,0.11-0.41,0.42-0.4
		c1.46,0.01,2.93,0.02,4.39,0c0.34,0,0.38,0.13,0.37,0.42c-0.01,0.9-0.01,1.81-0.01,2.71c0,0.88-0.01,1.77,0.01,2.65
		c0.01,0.31-0.04,0.45-0.41,0.45c-1.66-0.02-3.32-0.02-4.98,0C19,30.04,18.9,29.98,18.95,29.61z M17.81,40.33
		c0.29-2.61,0.56-5.22,0.82-7.83c0.03-0.35,0.18-0.41,0.49-0.41c0.86,0.02,1.72,0.01,2.58,0.01c0.86,0,1.72,0.02,2.58-0.01
		c0.34-0.01,0.42,0.1,0.43,0.43c0.03,1.65,0.04,1.65-1.59,1.65c-1.24,0-1.52,0.28-1.52,1.51c0,1.4-0.02,2.8,0.01,4.2
		c0.01,0.47-0.13,0.56-0.57,0.52c-0.95-0.09-1.9,0.03-2.81,0.28C17.83,40.79,17.76,40.76,17.81,40.33z M20.57,56.94
		c-4.02-0.02-7.25-3.27-7.25-7.29c0.01-3.94,3.26-7.19,7.21-7.2c4.03,0,7.28,3.24,7.28,7.26C27.81,53.69,24.54,56.95,20.57,56.94z
		 M27.81,43.83c-1.15-1.32-2.41-2.26-3.92-2.82c-0.21-0.08-0.22-0.23-0.22-0.41c0-1.33,0.01-2.67-0.01-4
		c-0.01-0.34,0.13-0.38,0.42-0.37c1.1,0.01,2.19,0.02,3.29,0c0.38-0.01,0.45,0.12,0.45,0.47C27.8,39.02,27.81,41.34,27.81,43.83z"/>
	<path class="st0" d="M20.59,46.07c-2.03,0-3.65,1.62-3.64,3.65c0,1.95,1.62,3.57,3.57,3.59c2.02,0.02,3.67-1.6,3.67-3.62
		C24.19,47.71,22.57,46.07,20.59,46.07z M20.54,51.24c-0.85-0.02-1.54-0.74-1.52-1.6c0.02-0.82,0.72-1.5,1.55-1.5
		c0.85,0,1.56,0.71,1.55,1.56C22.11,50.56,21.39,51.26,20.54,51.24z"/>
</g>
</svg>
