<?xml version="1.0" encoding="utf-8"?>
<!-- Generator: Adobe Illustrator 27.9.0, SVG Export Plug-In . SVG Version: 6.00 Build 0)  -->
<svg version="1.1" id="Layer_1" xmlns="http://www.w3.org/2000/svg" xmlns:xlink="http://www.w3.org/1999/xlink" x="0px" y="0px"
	 viewBox="0 0 150 150" style="enable-background:new 0 0 150 150;" xml:space="preserve">
<g>
	<path d="M75.1,108.2c-5.6,0-11.4-1.5-15.8-4.3l-40-26.1c-7.4-4.8-11.9-13-11.9-21.9c0-8.9,4.5-17.1,11.9-21.9l40.1-26
		C68.3,2.1,82.1,2.1,91,8l39.8,26.1c7.4,4.8,11.8,13,11.8,21.9c0,8.8-4.5,17-11.8,21.9L91,103.9C86.5,106.8,80.8,108.2,75.1,108.2z
		 M75.1,13.5c-3.8,0-7.6,0.9-10.3,2.7l-40,26c-4.7,3.1-7.4,8-7.4,13.6s2.7,10.5,7.4,13.6l40,26.1c5.5,3.6,15.2,3.6,20.7,0l39.8-26.1
		c4.7-3.1,7.3-8,7.3-13.6s-2.7-10.5-7.3-13.6L85.5,16.2C82.7,14.5,79,13.5,75.1,13.5z"/>
	<path d="M75,146.4c-2.9,0-5.9-0.4-8.3-1.2l-21.2-7c-10-3.3-17.9-14.3-17.9-24.8l0.1-31.2c0-2.7,2.3-5,5-5s5,2.3,5,5l-0.1,31.2
		c0,6.2,5.2,13.4,11.1,15.4l21.2,7c2.7,0.9,7.6,0.9,10.2,0l21.2-7c5.9-2,11.1-9.2,11.1-15.3V82.6c0-2.7,2.3-5,5-5s5,2.3,5,5v30.8
		c0,10.6-7.8,21.5-17.9,24.8l-21.2,7C80.9,146,77.9,146.4,75,146.4z"/>
	<path d="M137.5,99.9c-2.7,0-5-2.3-5-5V55.1c0-2.7,2.3-5,5-5s5,2.3,5,5v39.9C142.5,97.7,140.2,99.9,137.5,99.9z"/>
</g>
</svg>
